<svg xmlns="http://www.w3.org/2000/svg" xmlns:xlink="http://www.w3.org/1999/xlink" width="5000" zoomAndPan="magnify" viewBox="0 0 3750 3749.999967" height="5000" preserveAspectRatio="xMidYMid meet" version="1.0"><defs><clipPath id="3f337bc372"><path d="M 517.5 457.5 L 3232.5 457.5 L 3232.5 3172.5 L 517.5 3172.5 Z M 517.5 457.5 " clip-rule="nonzero"/></clipPath><clipPath id="61164f32b4"><path d="M 517.5 532.5 L 517.5 3097.5 C 517.5 3138.921875 551.078125 3172.5 592.5 3172.5 L 3157.5 3172.5 C 3198.921875 3172.5 3232.5 3138.921875 3232.5 3097.5 L 3232.5 532.5 C 3232.5 491.078125 3198.921875 457.5 3157.5 457.5 L 592.5 457.5 C 551.078125 457.5 517.5 491.078125 517.5 532.5 Z M 517.5 532.5 " clip-rule="nonzero"/></clipPath><clipPath id="91a3bb0a0b"><path d="M 1493 1562 L 2154 1562 L 2154 2222 L 1493 2222 Z M 1493 1562 " clip-rule="nonzero"/></clipPath><clipPath id="aa21ba3c4b"><path d="M 517.5 532.5 L 517.5 3097.5 C 517.5 3138.921875 551.078125 3172.5 592.5 3172.5 L 3157.5 3172.5 C 3198.921875 3172.5 3232.5 3138.921875 3232.5 3097.5 L 3232.5 532.5 C 3232.5 491.078125 3198.921875 457.5 3157.5 457.5 L 592.5 457.5 C 551.078125 457.5 517.5 491.078125 517.5 532.5 Z M 517.5 532.5 " clip-rule="nonzero"/></clipPath><clipPath id="a3bbc9ed18"><path d="M 1150 849 L 2517 849 L 2517 2781 L 1150 2781 Z M 1150 849 " clip-rule="nonzero"/></clipPath><clipPath id="e53ed79c51"><path d="M 517.5 532.5 L 517.5 3097.5 C 517.5 3138.921875 551.078125 3172.5 592.5 3172.5 L 3157.5 3172.5 C 3198.921875 3172.5 3232.5 3138.921875 3232.5 3097.5 L 3232.5 532.5 C 3232.5 491.078125 3198.921875 457.5 3157.5 457.5 L 592.5 457.5 C 551.078125 457.5 517.5 491.078125 517.5 532.5 Z M 517.5 532.5 " clip-rule="nonzero"/></clipPath></defs><g clip-path="url(#3f337bc372)"><g clip-path="url(#61164f32b4)"><path fill="#000000" d="M 517.5 457.5 L 3232.5 457.5 L 3232.5 3172.5 L 517.5 3172.5 Z M 517.5 457.5 " fill-opacity="1" fill-rule="nonzero"/></g></g><g clip-path="url(#91a3bb0a0b)"><g clip-path="url(#aa21ba3c4b)"><path fill="#24d1d1" d="M 2153.234375 1892.183594 C 2153.234375 1976.621094 2121.058594 2061.058594 2056.707031 2125.40625 C 1992.171875 2189.757812 1907.917969 2221.933594 1823.480469 2221.933594 C 1739.046875 2221.933594 1654.609375 2189.757812 1590.257812 2125.40625 C 1461.371094 1996.519531 1461.371094 1787.660156 1590.257812 1658.773438 C 1654.792969 1594.421875 1739.046875 1562.246094 1823.480469 1562.246094 C 1907.917969 1562.246094 1992.355469 1594.421875 2056.707031 1658.773438 C 2121.058594 1723.125 2153.234375 1807.5625 2153.234375 1891.996094 Z M 2153.234375 1892.183594 " fill-opacity="1" fill-rule="nonzero"/></g></g><g clip-path="url(#a3bbc9ed18)"><g clip-path="url(#e53ed79c51)"><path stroke-linecap="round" transform="matrix(18.598437, 0, 0, 18.598437, 517.499991, 457.500077)" fill="none" stroke-linejoin="round" d="M 45.880032 100.580104 L 62.259936 116.960008 C 66.170085 120.869947 72.500002 120.869947 76.400069 116.960008 L 92.779974 100.580104 C 105.730071 87.630007 105.730071 66.630048 92.779974 53.679952 C 79.830087 40.730065 58.77006 40.789924 45.880032 53.679952 C 27.530035 72.029948 49.739983 96.719942 69.330003 77.129923 C 82.760021 63.699905 66.580066 40.960049 52.909982 26.090058 " stroke="#ffffff" stroke-width="10" stroke-opacity="1" stroke-miterlimit="4"/></g></g></svg>