<?xml version="1.0" encoding="UTF-8"?>
<svg xmlns="http://www.w3.org/2000/svg" id="Layer_1" data-name="Layer 1" viewBox="0 0 145.98 145.98" style="background: transparent;">
  <defs>
    <style>
      .cls-1 {
        fill: #61d6b2;
      }

      .cls-2 {
        fill: none;
        stroke: #fff;
        stroke-linecap: round;
        stroke-linejoin: round;
        stroke-width: 10px;
      }
    </style>
  </defs>
  
  <path class="cls-1" d="M87.95,77.14c0,4.54-1.73,9.08-5.19,12.54-3.47,3.46-8,5.19-12.54,5.19s-9.08-1.73-12.54-5.19c-6.93-6.93-6.93-18.16,0-25.09,3.47-3.46,8-5.19,12.54-5.19s9.08,1.73,12.54,5.19,5.19,8,5.19,12.54Z"/>
  <path class="cls-2" d="M45.88,100.58l16.38,16.38c3.91,3.91,10.24,3.91,14.14,0l16.38-16.38c12.95-12.95,12.95-33.95,0-46.9h0c-12.95-12.95-34.01-12.89-46.9,0-18.35,18.35,3.86,43.04,23.45,23.45,13.43-13.43-2.75-36.17-16.42-51.04"/>
</svg>