<?xml version="1.0" encoding="UTF-8"?>
<svg id="Layer_1" data-name="Layer 1" xmlns="http://www.w3.org/2000/svg" viewBox="0 0 73.03 93.38">
  <defs>
    <style>
      .cls-1 {
        fill: #61d6b2;
      }
    </style>
  </defs>
  <ellipse class="cls-1" cx="36.52" cy="34.29" rx="23.53" ry="24.29"/>
  <path class="cls-1" d="m36.52,10c12.99,0,23.53,10.62,23.53,23.73"/>
  <path class="cls-1" d="m12.99,33.7c0-13.11,12.42-23.77,23.53-23.7"/>
  <path class="cls-1" d="m56.3,48.71l.04-.08c.41-.75.78-1.51,1.12-2.3,1.68-3.86,2.58-8.22,2.58-12.6v-.03"/>
  <path class="cls-1" d="m16.73,48.71l-.04-.07c-.4-.75-.78-1.51-1.12-2.31-1.68-3.86-2.58-8.24-2.58-12.63"/>
  <path class="cls-1" d="m15.57,46.33l16.98,34.93s3.96,4.29,7.93,0l16.98-34.93"/>
  <ellipse cx="36.52" cy="33.73" rx="16.46" ry="16.48"/>
</svg>